<?xml version="1.0" encoding="utf-8"?>

<!-- License Agreement at http://iconmonstr.com/license/ -->

<!DOCTYPE svg PUBLIC "-//W3C//DTD SVG 1.1//EN" "http://www.w3.org/Graphics/SVG/1.1/DTD/svg11.dtd">
<svg version="1.1" xmlns="http://www.w3.org/2000/svg" xmlns:xlink="http://www.w3.org/1999/xlink" x="0px" y="0px"
	 width="512px" height="512px" viewBox="0 0 512 512" style="enable-background:new 0 0 512 512;" xml:space="preserve">
<path id="crown-4" d="M462,135.834c-67.342,56.043-96.529,80.963-122.748,80.963c-41.877,0-63.186-63.101-83.252-132.463
	c-20,69.145-41.375,132.446-83.302,132.446c-25.985,0-54.4-24.107-122.698-80.946c57.016,120.477,51.5,245.328,51.5,291.832h309
	C410.5,398.178,402.303,262.01,462,135.834z M172.698,251.113c39.396,0,65.012-28.155,83.302-64.567
	c18.273,36.42,43.872,64.584,83.252,64.584c19.245,0,37.552-7.376,53.662-17.887c-7.41,32.731-11.668,63.862-14.082,91.423H132.983
	c-2.364-27.762-6.521-58.767-13.864-91.398C135.029,243.687,153.453,251.113,172.698,251.113z M135.951,393.334
	c-0.05-10.193-0.268-21.761-0.805-34.334h241.457c-0.554,12.791-0.788,24.408-0.805,34.334H135.951z"/>
</svg>
